<svg xmlns="http://www.w3.org/2000/svg" xml:space="preserve" width="1500" height="531" data-id="lg_k2HslevY6cNB9SZFVx" data-version="1"><g data-padding="20"><g fill="url(#a)" stroke="null" transform="translate(10 10.057)scale(.96212)"><linearGradient id="a" x1="0" x2="1" y1="0" y2="0" gradientUnits="objectBoundingBox"><stop offset="0%" stop-color="#ff6cab"/><stop offset="100%" stop-color="#7366ff"/></linearGradient><path d="M526.439 123.105q-2.92-5.49-5.97-13.94-3.05-8.44-5.83-18.14-2.79-9.7-4.96-19.16t-3.42-17.19q-1.26-7.73-1.26-12.07 0-1.77.75-2.79 1.56-2.17 3.83-4.51t5.39-4.91q1.02-.82 1.9-.82.89 0 1.77.82 3.18 2.57 5.42 4.91t3.8 4.51q.75 1.02.75 2.99v-.27q0 4.47 1.18 12.1 1.19 7.63 3.12 16.69 1.94 9.05 4.21 17.83 2.27 8.79 4.51 15.64h.41q3.66-9.09 6.85-19.74 3.18-10.65 5.96-21.77t5.23-21.63q.74-3.06 2.54-4.24 1.8-1.19 5.66-1.19h8.14q3.46 0 5.16 1.02 1.69 1.01 2.44 4.41 1.76 7.86 4 16.61t4.64 17.4q2.41 8.65 4.89 16.17 2.47 7.53 4.71 12.96h.41q2.85-6.45 5.12-15.19 2.27-8.75 3.86-17.88 1.6-9.12 2.45-16.92.84-7.8.84-12.27v.27q0-1.97.68-2.99 3.26-4.47 8.95-9.42 1.09-.82 1.9-.82.75 0 1.77.82 3.05 2.57 5.22 4.91t3.73 4.51q.68 1.09.68 2.92 0 5.7-1.29 13.7t-3.49 17.06q-2.21 9.05-4.96 18.07-2.74 9.02-5.76 16.86-3.02 7.83-5.93 13.26-2.45 4.54-4.38 6.13-1.93 1.6-5.53 1.6h-8.34q-3.05 0-5.12-1.36t-4.31-5.09q-1.69-2.84-3.9-8-2.2-5.15-4.4-11.22-2.21-6.07-3.97-11.77t-2.58-9.63q-.95-4.48-1.59-8.65-.65-4.17-.78-6.54h-.54q-.14 2.37-.85 6.54t-1.73 8.65q-1.02 4.47-2.71 10.24-1.7 5.76-3.74 11.6-2.03 5.83-4.06 10.78-2.04 4.95-3.8 7.87-1.97 3.32-4.31 4.95t-6.48 1.63h-7.66q-3.59 0-5.43-1.29-1.83-1.29-3.79-5.02Zm111.43-80.57v.27Zm-132.87.27v-.27Zm200.15-5.29q3.73 5.22 7.63 13.46t7.56 18.08q3.66 9.83 6.61 20.1 2.95 10.28 4.85 19.77 1.9 9.5 2.17 16.89.07 3.6-3.26 3.6h-16.41q-3.19 0-3.32-3.19-.27-7.6-2.44-18.45h-37.03q-1.9 10.58-2.17 18.45-.14 3.19-3.46 3.19h-16.08q-1.22 0-2.03-.72-.81-.71-.75-2.47.34-7.53 2.21-17.13 1.86-9.59 4.85-19.9 2.98-10.31 6.64-20.18 3.67-9.87 7.6-18.07 3.93-8.21 7.66-13.43 1.97-2.78 4.17-4.07 2.21-1.29 5.46-1.29h9.77q3.32 0 5.56 1.29t4.21 4.07Zm-14.92 16.07h-.41q-4.48 7.12-8.21 17.03-3.73 9.9-6.44 20.34h29.43q-2.85-10.44-6.58-20.34-3.73-9.91-7.79-17.03Zm17.43-29.91q-5.43 0-8.79-3.01-3.35-3.02-3.35-8.72 0-5.63 3.28-8.68 3.29-3.05 8.86-3.05 5.56 0 8.88 3.05t3.32 8.68q0 5.56-3.29 8.65-3.29 3.08-8.91 3.08Zm-34.19 0q-5.56 0-8.88-3.08-3.32-3.09-3.32-8.65 0-5.76 3.45-8.75 3.46-2.98 8.75-2.98 5.63 0 8.89 3.05 3.25 3.05 3.25 8.68t-3.25 8.68q-3.26 3.05-8.89 3.05Zm98.34 33.71v68.43q0 2.04-.84 2.82-.85.78-2.89.78h-14.44q-2.04 0-2.88-.78-.85-.78-.85-2.82v-75.48q0-6.79 1.25-10.75 1.26-3.97 4.89-5.7 3.62-1.73 10.61-1.73h17.97q35.41 0 35.41 27.2 0 8.27-2.79 13.56-2.78 5.29-6.91 8.24-4.14 2.95-8.14 4.44v.34q4.54 2.99 8.65 7.84 4.1 4.85 7.42 10.51 3.33 5.66 5.63 11.19 2.31 5.53 3.19 9.87.41 2.03.03 3.05-.37 1.02-2.34 1.02h-15.66q-1.77 0-3.09-.75t-2.41-3.46q-5.15-12.95-11.87-21.12-6.71-8.18-12.95-13.13-4-3.19-4-4.54 0-1.09 1.29-2.99.81-1.15 2.37-2.78 1.56-1.62 2.71-2.44 1.16-.81 1.87-1.02.71-.2 2.2-.2 5.02 0 8.38-3.46t3.36-10.92q0-7.05-3.56-10.34-3.57-3.29-9.8-3.29h-4.07q-4.48 0-6.11 1.9t-1.63 6.51Zm123.24 33.1h.54q.95-3.67 2.07-7.23t2.74-7.96q1.43-3.94 3.46-9.06 2.04-5.12 4.31-10.41t4.44-9.83q2.17-4.55 3.94-7.26 2.17-3.32 4.71-4.95t7.49-1.63h8.89q3.52 0 5.93 1.05t3.43 4.99q.74 2.91 1.42 8.54t1.15 15.6q.48 9.97.75 25.6.27 15.64.27 38.63 0 1.22-.81 2.03-.82.82-1.97.82h-15.46q-1.16 0-1.97-.82-.81-.81-.81-2.1v-30.38q0-12.48-.07-20.69t-.17-13.05q-.1-4.85-.31-7.5h-.4q-3.6 8.28-7.67 18.41-4.07 10.14-7.93 20.89-3.87 10.75-6.92 20.99-.88 3.06-2.2 4.24-1.33 1.19-6.01 1.19h-7.79q-4.01 0-5.33-1.02-1.32-1.01-2.27-4.41-2.24-7.73-4.95-16.34t-5.6-16.92q-2.88-8.31-5.56-15.33t-4.78-11.7h-.41q-.54 8-.95 19.47-.4 11.46-.64 24.89-.24 13.42-.31 27.4 0 1.22-.81 2t-1.97.78h-13.9q-1.15 0-1.97-.82-.81-.81-.81-2.1.07-36.15 1.46-57.72 1.39-21.56 3.02-28.89 1.08-4.81 3.83-6.27 2.74-1.46 6.27-1.46h10.99q3.73 0 5.46 1.32 1.73 1.33 4.24 5.12 1.49 2.24 3.56 6.72 2.07 4.47 4.3 9.93 2.24 5.46 4.24 10.79 2 5.32 3.29 9.26 1.36 4 2.51 7.76t2.04 7.43Zm127.43 38.93h-34.11q-6.99 0-10.62-1.77-3.62-1.76-4.88-5.76-1.25-4-1.25-10.65v-60.9q0-6.79 1.25-10.75 1.26-3.97 4.88-5.7 3.63-1.73 10.62-1.73h31.87q1.63 0 2.45.54 1.76 1.22 3.66 2.92t4 4.07q.68.88.68 1.42 0 .61-.68 1.36-2.1 2.37-4 4.07-1.9 1.69-3.66 2.92-.95.54-2.45.54h-18.99q-4.47 0-6.1 1.9t-1.63 6.51v13.16h24.35q1.63 0 2.44.54 1.77 1.22 3.66 2.91 1.9 1.7 4.01 4.07.67.88.67 1.43 0 .61-.67 1.35-2.11 2.38-4.01 4.07-1.89 1.7-3.66 2.92-.95.54-2.44.54h-24.35v13.7q0 4.55 1.63 6.51 1.63 1.97 6.1 1.97h21.23q1.63 0 2.44.54 1.77 1.22 3.67 2.92 1.9 1.69 4 4.07.68.88.68 1.42 0 .61-.68 1.36-2.1 2.37-4 4.07-1.9 1.69-3.67 2.91-.95.55-2.44.55Z" font-family="ADLaM Display" font-size="138.898"/><path d="M526.439 322.975q-2.92-5.49-5.97-13.93-3.05-8.45-5.83-18.15-2.79-9.69-4.96-19.16-2.17-9.46-3.42-17.19-1.26-7.73-1.26-12.07 0-1.76.75-2.78 1.56-2.17 3.83-4.51t5.39-4.92q1.02-.81 1.9-.81.89 0 1.77.81 3.18 2.58 5.42 4.92t3.8 4.51q.75 1.02.75 2.98v-.27q0 4.48 1.18 12.11 1.19 7.63 3.12 16.68 1.94 9.06 4.21 17.84t4.51 15.63h.41q3.66-9.09 6.85-19.73 3.18-10.65 5.96-21.77 2.78-11.13 5.23-21.64.74-3.05 2.54-4.24t5.66-1.19h8.14q3.46 0 5.16 1.02 1.69 1.02 2.44 4.41 1.76 7.87 4 16.62t4.64 17.39q2.41 8.65 4.89 16.18 2.47 7.53 4.71 12.95h.41q2.85-6.44 5.12-15.19t3.86-17.87q1.6-9.12 2.45-16.92.84-7.8.84-12.28v.27q0-1.96.68-2.98 3.26-4.48 8.95-9.43 1.09-.81 1.9-.81.75 0 1.77.81 3.05 2.58 5.22 4.92t3.73 4.51q.68 1.08.68 2.92 0 5.69-1.29 13.7-1.29 8-3.49 17.05-2.21 9.06-4.96 18.08-2.74 9.02-5.76 16.85t-5.93 13.26q-2.45 4.54-4.38 6.14-1.93 1.59-5.53 1.59h-8.34q-3.05 0-5.12-1.36-2.07-1.35-4.31-5.08-1.69-2.85-3.9-8-2.2-5.16-4.4-11.23-2.21-6.07-3.97-11.77-1.76-5.69-2.58-9.63-.95-4.47-1.59-8.64-.65-4.18-.78-6.55h-.54q-.14 2.37-.85 6.55-.71 4.17-1.73 8.64-1.02 4.48-2.71 10.24-1.7 5.77-3.74 11.6-2.03 5.83-4.06 10.79-2.04 4.95-3.8 7.86-1.97 3.33-4.31 4.95-2.34 1.63-6.48 1.63h-7.66q-3.59 0-5.43-1.29-1.83-1.29-3.79-5.02Zm111.43-80.57v.27Zm-132.87.27v-.27Zm198.65 86.61h-34.11q-6.99 0-10.61-1.76-3.63-1.77-4.89-5.77-1.25-4-1.25-10.65v-60.9q0-6.78 1.25-10.75 1.26-3.97 4.89-5.7 3.62-1.72 10.61-1.72h31.88q1.62 0 2.44.54 1.76 1.22 3.66 2.91 1.9 1.7 4 4.07.68.89.68 1.43 0 .61-.68 1.35-2.1 2.38-4 4.07-1.9 1.7-3.66 2.92-.95.54-2.44.54h-18.99q-4.48 0-6.11 1.9t-1.63 6.51v13.16h24.35q1.63 0 2.44.54 1.77 1.22 3.67 2.92 1.89 1.69 4 4.07.68.88.68 1.42 0 .61-.68 1.36-2.11 2.37-4 4.07-1.9 1.69-3.67 2.91-.95.55-2.44.55h-24.35v13.7q0 4.54 1.63 6.51 1.63 1.96 6.11 1.96h21.22q1.63 0 2.45.55 1.76 1.22 3.66 2.91 1.9 1.7 4 4.07.68.88.68 1.43 0 .61-.68 1.35-2.1 2.38-4 4.07-1.9 1.7-3.66 2.92-.95.54-2.45.54Zm46.94-86.4v82.81q0 2.03-.85 2.81t-2.88.78h-14.45q-2.03 0-2.88-.78t-.85-2.81v-82.81q0-1.97.68-2.99 3.05-4.47 8.54-9.42 1.02-.82 1.77-.82.81 0 1.69.82 2.99 2.57 5.02 4.91 2.04 2.34 3.53 4.51.68 1.09.68 2.99Zm63.75 6.98v75.83q0 2.03-.85 2.81t-2.88.78h-14.45q-2.03 0-2.88-.78t-.85-2.81v-75.83h-20.21q-1.63 0-2.44-.54-1.76-1.22-3.63-2.92-1.86-1.69-4.03-4.07-.68-.88-.68-1.42 0-.61.68-1.36 2.17-2.37 4.03-4.07 1.87-1.69 3.63-2.91.95-.54 2.44-.54h62.4q1.62 0 2.44.54 1.76 1.22 3.66 2.91 1.9 1.7 4 4.07.68.89.68 1.43 0 .61-.68 1.35-2.1 2.38-4 4.07-1.9 1.7-3.66 2.92-.95.54-2.44.54Zm92.78 79.42h-34.12q-6.98 0-10.61-1.76-3.63-1.77-4.88-5.77-1.26-4-1.26-10.65v-60.9q0-6.78 1.26-10.75 1.25-3.97 4.88-5.7 3.63-1.72 10.61-1.72h31.88q1.63 0 2.44.54 1.77 1.22 3.66 2.91 1.9 1.7 4.01 4.07.67.89.67 1.43 0 .61-.67 1.35-2.11 2.38-4.01 4.07-1.89 1.7-3.66 2.92-.95.54-2.44.54h-18.99q-4.48 0-6.1 1.9-1.63 1.9-1.63 6.51v13.16h24.35q1.62 0 2.44.54 1.76 1.22 3.66 2.92 1.9 1.69 4 4.07.68.88.68 1.42 0 .61-.68 1.36-2.1 2.37-4 4.07-1.9 1.69-3.66 2.91-.95.55-2.44.55h-24.35v13.7q0 4.54 1.63 6.51 1.62 1.96 6.1 1.96h21.23q1.63 0 2.44.55 1.76 1.22 3.66 2.91 1.9 1.7 4 4.07.68.88.68 1.43 0 .61-.68 1.35-2.1 2.38-4 4.07-1.9 1.7-3.66 2.92-.95.54-2.44.54Zm46.93-72.03v68.44q0 2.03-.85 2.81-.84.78-2.88.78h-14.45q-2.03 0-2.88-.78t-.85-2.81v-75.49q0-6.78 1.26-10.75 1.25-3.97 4.88-5.7 3.63-1.72 10.62-1.72h17.97q35.4 0 35.4 27.19 0 8.28-2.78 13.57t-6.92 8.24q-4.13 2.95-8.14 4.44v.34q4.55 2.98 8.65 7.83 4.11 4.85 7.43 10.51 3.32 5.67 5.63 11.19 2.3 5.53 3.19 9.87.4 2.04.03 3.05-.37 1.02-2.34 1.02h-15.67q-1.76 0-3.08-.74-1.33-.75-2.41-3.46-5.16-12.96-11.87-21.13t-12.95-13.12q-4.01-3.19-4.01-4.55 0-1.08 1.29-2.98.82-1.15 2.38-2.78t2.71-2.44q1.15-.82 1.87-1.02.71-.2 2.2-.2 5.02 0 8.38-3.46 3.35-3.46 3.35-10.92 0-7.06-3.56-10.35t-9.8-3.29h-4.07q-4.47 0-6.1 1.9t-1.63 6.51Z" font-family="ADLaM Display" font-size="138.898"/><path d="M590.599 489.075v33.44q-1.63 1.15-5.8 3.15t-11.5 3.56q-7.32 1.56-18.38 1.56-14.85 0-25.6-4.91-10.75-4.92-16.52-15.94-5.76-11.02-5.76-29.2 0-24.21 12.41-37.33 12.41-13.13 34.59-13.13 10.58 0 16.89 2.04 6.3 2.03 9.56 4.74 3.26 2.72 4.54 4.75.48.75.68 1.32.21.58.27 1.8.21 1.63.11 4.75-.11 3.12-.51 5.49-.27 1.49-.88 1.97-.28.27-.95.47-.68.21-2.04.21-2.17 0-5.05-.17t-4.24-.38q-1.63-.27-2.34-.78-.71-.5-1.53-1.59-.81-1.08-2.23-2.54-1.43-1.46-4.31-2.61-2.88-1.16-7.97-1.16-11.19 0-17.57 8.11-6.37 8.1-6.37 23.29 0 15.94 6.61 24.22 6.61 8.27 19.03 8.27 6.23 0 9.19-.91 2.95-.92 3.76-1.39v-21.1q0-1.96.68-2.98 3.05-4.48 8.54-9.43 1.02-.81 1.77-.81.81 0 1.69.81 2.99 2.58 5.02 4.92 2.04 2.34 3.53 4.51.68 1.08.68 2.98Zm69.17 40.09h-34.11q-6.99 0-10.61-1.77-3.63-1.76-4.89-5.76-1.25-4-1.25-10.65v-60.9q0-6.79 1.25-10.75 1.26-3.97 4.89-5.7 3.62-1.73 10.61-1.73h31.88q1.62 0 2.44.54 1.76 1.22 3.66 2.92 1.9 1.69 4 4.07.68.88.68 1.42 0 .61-.68 1.36-2.1 2.37-4 4.07-1.9 1.69-3.66 2.91-.95.55-2.44.55h-18.99q-4.48 0-6.11 1.9-1.63 1.89-1.63 6.51v13.15h24.35q1.63 0 2.44.55 1.77 1.22 3.67 2.91 1.89 1.7 4 4.07.68.88.68 1.43 0 .61-.68 1.35-2.11 2.38-4 4.07-1.9 1.7-3.67 2.92-.95.54-2.44.54h-24.35v13.7q0 4.54 1.63 6.51t6.11 1.97h21.22q1.63 0 2.44.54 1.77 1.22 3.67 2.92 1.9 1.69 4 4.07.68.88.68 1.42 0 .61-.68 1.36-2.1 2.37-4 4.07-1.9 1.69-3.67 2.91-.94.55-2.44.55Zm62.4 0h-20.62q-6.98 0-10.61-1.77-3.63-1.76-4.89-5.76-1.25-4-1.25-10.65v-60.9q0-6.79 1.25-10.75 1.26-3.97 4.89-5.7t10.61-1.73h18.65q16.28 0 25.03 5.97t8.75 16.82q0 5.36-2.44 9.76-2.45 4.41-6.41 7.53-3.97 3.12-8.65 4.68v.27q5.97.82 10.78 3.9 4.82 3.09 7.7 8.01 2.88 4.91 2.88 11.29 0 9.49-4.57 15.97-4.58 6.48-12.62 9.77t-18.48 3.29Zm-15.46-72.71v48.09q0 4.54 1.62 6.51 1.63 1.96 6.11 1.96h5.15q6.85 0 11.02-3.52 4.17-3.53 4.17-9.63 0-5.84-4.07-9.16-4.06-3.32-10.51-3.32h.07q-1.63 0-2.44-.48-1.76-1.15-3.63-2.68-1.86-1.52-4.04-3.69-.67-.88-.67-1.29 0-.54.67-1.29 2.18-2.17 4.04-3.73 1.87-1.56 3.63-2.64.95-.48 2.44-.48h-.07q4 0 7.36-2.98 3.36-2.99 3.36-9.36 0-6.45-3.6-8.58-3.59-2.14-9.22-2.14h-3.66q-4.48 0-6.11 1.9-1.62 1.9-1.62 6.51Zm118.28 72.71h-34.12q-6.98 0-10.61-1.77-3.63-1.76-4.88-5.76-1.26-4-1.26-10.65v-60.9q0-6.79 1.26-10.75 1.25-3.97 4.88-5.7t10.61-1.73h31.88q1.63 0 2.44.54 1.76 1.22 3.66 2.92 1.9 1.69 4 4.07.68.88.68 1.42 0 .61-.68 1.36-2.1 2.37-4 4.07-1.9 1.69-3.66 2.91-.95.55-2.44.55h-18.99q-4.48 0-6.11 1.9-1.62 1.89-1.62 6.51v13.15h24.34q1.63 0 2.45.55 1.76 1.22 3.66 2.91 1.9 1.7 4 4.07.68.88.68 1.43 0 .61-.68 1.35-2.1 2.38-4 4.07-1.9 1.7-3.66 2.92-.95.54-2.45.54h-24.34v13.7q0 4.54 1.62 6.51 1.63 1.97 6.11 1.97h21.23q1.62 0 2.44.54 1.76 1.22 3.66 2.92 1.9 1.69 4 4.07.68.88.68 1.42 0 .61-.68 1.36-2.1 2.37-4 4.07-1.9 1.69-3.66 2.91-.95.55-2.44.55Zm45.71-70.27v66.67q0 2.04-.78 2.82t-2.75.78h-13.63q-1.9 0-2.71-.78-.82-.78-.82-2.82v-85.93q0-4 1.56-5.87 1.56-1.86 5.5-1.86h6.3q3.46 0 6.55.92 3.08.91 6.58 4.1 3.49 3.19 8.14 9.87 4.64 6.68 11.22 18.21 6.31 10.98 10.14 17.56t5.93 10.04q2.11 3.46 3.16 4.95t1.73 2.44v-57.24q0-1.97.61-2.98 2.91-4.48 8.07-9.43 1.02-.81 1.69-.81.75 0 1.63.81 2.78 2.58 4.71 4.92 1.94 2.34 3.36 4.51.61 1.08.61 2.98v80.78q0 3.05-1.15 4.34t-4.21 1.29h-6.51q-2.91 0-5.96-.99-3.06-.98-6.92-4.47-3.87-3.5-9.16-10.89t-12.75-20.21q-6.31-10.92-10.07-17.36-3.76-6.45-5.73-9.73-1.97-3.29-2.85-4.62-.88-1.32-1.49-2Z" font-family="ADLaM Display" font-size="138.898"/></g><path fill="transparent" stroke="transparent" d="M486 0h528v531H486z"/></g></svg>